# xmcd
#
# Track frame offsets:
#	150
#	18379
#	36919
#	52288
#	69623
#	84865
#	102637
#	118653
#	135136
#	154220
#	170089
#	183502
#	199646
#	218364
#	234574
#	252275
#	267778
#	282947
#	301919
#
# Disc length: 4194 seconds
#
# Revision: 6
# Processed by: cddbd v1.5.2PL0 Copyright (c) Steve Scherf et al.
# Submitted via: audiograbber 1.83.01
#
DISCID=0b106013
DTITLE=Status Quo - Don't Stop [expanded 2006]
DYEAR=1996
DGENRE=Rock
TTITLE0=Fun Fun Fun [with The Beach Boys]
TTITLE1=When You Walk In The Room
TTITLE2=I Can Hear The Grass Grow
TTITLE3=You Never Can Tell (It Was A Teenage Wedding)
TTITLE4=Get Back
TTITLE5=Safety Dance
TTITLE6=Raining In My Heart [with Brian May]
TTITLE7=Don't Stop
TTITLE8=Sorrow
TTITLE9=Proud Mary
TTITLE10=Lucille
TTITLE11=Johnny And Mary
TTITLE12=Get Out Of Denver
TTITLE13=The Future's So Bright (I Gotta Wear Shades)
TTITLE14=All Around My Hat [with Maddy Prior]
TTITLE15=Tilting At The Mill [bonus track]
TTITLE16=Mortified [bonus track]
TTITLE17=Temporary Friend [bonus track]
TTITLE18=I'll Never Get Over You [bonus track]
EXTD=
EXTT0=
EXTT1=
EXTT2=
EXTT3=
EXTT4=
EXTT5=
EXTT6=
EXTT7=
EXTT8=
EXTT9=
EXTT10=
EXTT11=
EXTT12=
EXTT13=
EXTT14=
EXTT15=
EXTT16=
EXTT17=
EXTT18=
PLAYORDER=
